<?xml version="1.0" encoding="utf-8"?><svg xmlns="http://www.w3.org/2000/svg" xmlns:xlink="http://www.w3.org/1999/xlink" width="500" height="583.50" viewBox="0 0 500 583.50" style="fill: #115e59"><rect x="15.00" y="15.00" width="471.70" height="471.70" fill="#f0fdfa" fill-opacity="1" /><g transform="scale(20.83) translate(0 0)"><path d="M22.7,0H1.3C0.6,0,0,0.6,0,1.3v25.3C0,27.4,0.6,28,1.3,28h21.3c0.7,0,1.3-0.6,1.3-1.3V1.3C24,0.6,23.4,0,22.7,0 z M23,22c0,0.6-0.5,1-1,1H2c-0.6,0-1-0.5-1-1V2c0-0.6,0.5-1,1-1h20c0.6,0,1,0.5,1,1V22z" />
                            
                        </g><g transform="scale(0.85) translate(43.48 43.48)"><svg xmlns="http://www.w3.org/2000/svg" version="1.1" width="500" height="500" viewBox="0 0 500 500"><g transform="scale(17.241)"><g transform="translate(0,0)"><g><g transform="translate(3.5,3.5)"><path d="M-3.5 0C-3.5 -3.5 -3.5 -3.5 0 -3.5M-3.5 0C-3.5 3.5 -3.5 3.5 0 3.5M0 3.5C3.5 3.5 3.5 3.5 3.5 0M3.5 0C3.5 -3.5 3.5 -3.5 0 -3.5M3.5 0A0 0 0 0 1 0 3.5A0 0 0 0 1 -3.5 0A0 0 0 0 1 0 -3.5A0 0 0 0 1 3.5 0ZM-2.5 0C-2.5 -2.5 -2.5 -2.5 0 -2.5M-2.5 0C-2.5 2.5 -2.5 2.5 0 2.5M0 2.5C2.5 2.5 2.5 2.5 2.5 0M2.5 0C2.5 -2.5 2.5 -2.5 0 -2.5M2.5 0A0 0 0 0 1 0 2.5A0 0 0 0 1 -2.5 0A0 0 0 0 1 0 -2.5A0 0 0 0 1 2.5 0Z" style="fill-rule: evenodd; fill: #115e59" /><path d="M-1.5 1.5C-1.5 -1.5 -1.5 -1.5 1.5 -1.5M1.5 -1.5C1.5 1.5 1.5 1.5 -1.5 1.5" style="fill-rule: evenodd; fill: #0369a1" /></g></g><g><g transform="translate(25.5,3.5)"><g transform="rotate(90)"><path d="M-3.5 0C-3.5 -3.5 -3.5 -3.5 0 -3.5M-3.5 0C-3.5 3.5 -3.5 3.5 0 3.5M0 3.5C3.5 3.5 3.5 3.5 3.5 0M3.5 0C3.5 -3.5 3.5 -3.5 0 -3.5M3.5 0A0 0 0 0 1 0 3.5A0 0 0 0 1 -3.5 0A0 0 0 0 1 0 -3.5A0 0 0 0 1 3.5 0ZM-2.5 0C-2.5 -2.5 -2.5 -2.5 0 -2.5M-2.5 0C-2.5 2.5 -2.5 2.5 0 2.5M0 2.5C2.5 2.5 2.5 2.5 2.5 0M2.5 0C2.5 -2.5 2.5 -2.5 0 -2.5M2.5 0A0 0 0 0 1 0 2.5A0 0 0 0 1 -2.5 0A0 0 0 0 1 0 -2.5A0 0 0 0 1 2.5 0Z" style="fill-rule: evenodd; fill: #115e59" /><path d="M-1.5 1.5C-1.5 -1.5 -1.5 -1.5 1.5 -1.5M1.5 -1.5C1.5 1.5 1.5 1.5 -1.5 1.5" style="fill-rule: evenodd; fill: #0369a1" /></g></g></g><g><g transform="translate(3.5,25.5)"><g transform="rotate(-90)"><path d="M-3.5 0C-3.5 -3.5 -3.5 -3.5 0 -3.5M-3.5 0C-3.5 3.5 -3.5 3.5 0 3.5M0 3.5C3.5 3.5 3.5 3.5 3.5 0M3.5 0C3.5 -3.5 3.5 -3.5 0 -3.5M3.5 0A0 0 0 0 1 0 3.5A0 0 0 0 1 -3.5 0A0 0 0 0 1 0 -3.5A0 0 0 0 1 3.5 0ZM-2.5 0C-2.5 -2.5 -2.5 -2.5 0 -2.5M-2.5 0C-2.5 2.5 -2.5 2.5 0 2.5M0 2.5C2.5 2.5 2.5 2.5 2.5 0M2.5 0C2.5 -2.5 2.5 -2.5 0 -2.5M2.5 0A0 0 0 0 1 0 2.5A0 0 0 0 1 -2.5 0A0 0 0 0 1 0 -2.5A0 0 0 0 1 2.5 0Z" style="fill-rule: evenodd; fill: #115e59" /><path d="M-1.5 1.5C-1.5 -1.5 -1.5 -1.5 1.5 -1.5M1.5 -1.5C1.5 1.5 1.5 1.5 -1.5 1.5" style="fill-rule: evenodd; fill: #0369a1" /></g></g></g><defs><linearGradient gradientUnits="userSpaceOnUse" x1="0" y1="0" x2="0" y2="29" id="g1-0c47ff2ef9a29dcc"><stop offset="0%" style="stop-color: #115e59" /><stop offset="100%" style="stop-color: #0369a1" /></linearGradient></defs><path d="M9.925 0.5L9.893 0.663L9.801 0.801L9.663 0.893L9.5 0.925L9.337 0.893L9.199 0.801L9.107 0.663L9.075 0.5L9.5 -0.095ZM10.925 0.5L10.893 0.663L10.801 0.801L10.663 0.893L10.5 0.925L10.337 0.893L10.199 0.801L10.107 0.663L10.075 0.5L10.5 -0.095ZM15.925 0.5L15.893 0.663L15.801 0.801L15.663 0.893L15.5 0.925L15.337 0.893L15.199 0.801L15.107 0.663L15.075 0.5L15.5 -0.095ZM16.925 0.5L16.893 0.663L16.801 0.801L16.663 0.893L16.5 0.925L16.337 0.893L16.199 0.801L16.107 0.663L16.075 0.5L16.5 -0.095ZM19.925 0.5L19.893 0.663L19.801 0.801L19.663 0.893L19.5 0.925L19.337 0.893L19.199 0.801L19.107 0.663L19.075 0.5L19.5 -0.095ZM20.925 0.5L20.893 0.663L20.801 0.801L20.663 0.893L20.5 0.925L20.337 0.893L20.199 0.801L20.107 0.663L20.075 0.5L20.5 -0.095ZM12.925 1.5L12.893 1.663L12.801 1.801L12.663 1.893L12.5 1.925L12.337 1.893L12.199 1.801L12.107 1.663L12.075 1.5L12.5 0.905ZM13.925 1.5L13.893 1.663L13.801 1.801L13.663 1.893L13.5 1.925L13.337 1.893L13.199 1.801L13.107 1.663L13.075 1.5L13.5 0.905ZM14.925 1.5L14.893 1.663L14.801 1.801L14.663 1.893L14.5 1.925L14.337 1.893L14.199 1.801L14.107 1.663L14.075 1.5L14.5 0.905ZM15.925 1.5L15.893 1.663L15.801 1.801L15.663 1.893L15.5 1.925L15.337 1.893L15.199 1.801L15.107 1.663L15.075 1.5L15.5 0.905ZM17.925 1.5L17.893 1.663L17.801 1.801L17.663 1.893L17.5 1.925L17.337 1.893L17.199 1.801L17.107 1.663L17.075 1.5L17.5 0.905ZM19.925 1.5L19.893 1.663L19.801 1.801L19.663 1.893L19.5 1.925L19.337 1.893L19.199 1.801L19.107 1.663L19.075 1.5L19.5 0.905ZM8.925 2.5L8.893 2.663L8.801 2.801L8.663 2.893L8.5 2.925L8.337 2.893L8.199 2.801L8.107 2.663L8.075 2.5L8.5 1.905ZM11.925 2.5L11.893 2.663L11.801 2.801L11.663 2.893L11.5 2.925L11.337 2.893L11.199 2.801L11.107 2.663L11.075 2.5L11.5 1.905ZM14.925 2.5L14.893 2.663L14.801 2.801L14.663 2.893L14.5 2.925L14.337 2.893L14.199 2.801L14.107 2.663L14.075 2.5L14.5 1.905ZM15.925 2.5L15.893 2.663L15.801 2.801L15.663 2.893L15.5 2.925L15.337 2.893L15.199 2.801L15.107 2.663L15.075 2.5L15.5 1.905ZM18.925 2.5L18.893 2.663L18.801 2.801L18.663 2.893L18.5 2.925L18.337 2.893L18.199 2.801L18.107 2.663L18.075 2.5L18.5 1.905ZM10.925 3.5L10.893 3.663L10.801 3.801L10.663 3.893L10.5 3.925L10.337 3.893L10.199 3.801L10.107 3.663L10.075 3.5L10.5 2.905ZM11.925 3.5L11.893 3.663L11.801 3.801L11.663 3.893L11.5 3.925L11.337 3.893L11.199 3.801L11.107 3.663L11.075 3.5L11.5 2.905ZM13.925 3.5L13.893 3.663L13.801 3.801L13.663 3.893L13.5 3.925L13.337 3.893L13.199 3.801L13.107 3.663L13.075 3.5L13.5 2.905ZM14.925 3.5L14.893 3.663L14.801 3.801L14.663 3.893L14.5 3.925L14.337 3.893L14.199 3.801L14.107 3.663L14.075 3.5L14.5 2.905ZM16.925 3.5L16.893 3.663L16.801 3.801L16.663 3.893L16.5 3.925L16.337 3.893L16.199 3.801L16.107 3.663L16.075 3.5L16.5 2.905ZM17.925 3.5L17.893 3.663L17.801 3.801L17.663 3.893L17.5 3.925L17.337 3.893L17.199 3.801L17.107 3.663L17.075 3.5L17.5 2.905ZM20.925 3.5L20.893 3.663L20.801 3.801L20.663 3.893L20.5 3.925L20.337 3.893L20.199 3.801L20.107 3.663L20.075 3.5L20.5 2.905ZM8.925 4.5L8.893 4.663L8.801 4.801L8.663 4.893L8.5 4.925L8.337 4.893L8.199 4.801L8.107 4.663L8.075 4.5L8.5 3.905ZM9.925 4.5L9.893 4.663L9.801 4.801L9.663 4.893L9.5 4.925L9.337 4.893L9.199 4.801L9.107 4.663L9.075 4.5L9.5 3.905ZM10.925 4.5L10.893 4.663L10.801 4.801L10.663 4.893L10.5 4.925L10.337 4.893L10.199 4.801L10.107 4.663L10.075 4.5L10.5 3.905ZM13.925 4.5L13.893 4.663L13.801 4.801L13.663 4.893L13.5 4.925L13.337 4.893L13.199 4.801L13.107 4.663L13.075 4.5L13.5 3.905ZM16.925 4.5L16.893 4.663L16.801 4.801L16.663 4.893L16.5 4.925L16.337 4.893L16.199 4.801L16.107 4.663L16.075 4.5L16.5 3.905ZM17.925 4.5L17.893 4.663L17.801 4.801L17.663 4.893L17.5 4.925L17.337 4.893L17.199 4.801L17.107 4.663L17.075 4.5L17.5 3.905ZM18.925 4.5L18.893 4.663L18.801 4.801L18.663 4.893L18.5 4.925L18.337 4.893L18.199 4.801L18.107 4.663L18.075 4.5L18.5 3.905ZM19.925 4.5L19.893 4.663L19.801 4.801L19.663 4.893L19.5 4.925L19.337 4.893L19.199 4.801L19.107 4.663L19.075 4.5L19.5 3.905ZM8.925 5.5L8.893 5.663L8.801 5.801L8.663 5.893L8.5 5.925L8.337 5.893L8.199 5.801L8.107 5.663L8.075 5.5L8.5 4.905ZM10.925 5.5L10.893 5.663L10.801 5.801L10.663 5.893L10.5 5.925L10.337 5.893L10.199 5.801L10.107 5.663L10.075 5.5L10.5 4.905ZM11.925 5.5L11.893 5.663L11.801 5.801L11.663 5.893L11.5 5.925L11.337 5.893L11.199 5.801L11.107 5.663L11.075 5.5L11.5 4.905ZM14.925 5.5L14.893 5.663L14.801 5.801L14.663 5.893L14.5 5.925L14.337 5.893L14.199 5.801L14.107 5.663L14.075 5.5L14.5 4.905ZM15.925 5.5L15.893 5.663L15.801 5.801L15.663 5.893L15.5 5.925L15.337 5.893L15.199 5.801L15.107 5.663L15.075 5.5L15.5 4.905ZM16.925 5.5L16.893 5.663L16.801 5.801L16.663 5.893L16.5 5.925L16.337 5.893L16.199 5.801L16.107 5.663L16.075 5.5L16.5 4.905ZM17.925 5.5L17.893 5.663L17.801 5.801L17.663 5.893L17.5 5.925L17.337 5.893L17.199 5.801L17.107 5.663L17.075 5.5L17.5 4.905ZM19.925 5.5L19.893 5.663L19.801 5.801L19.663 5.893L19.5 5.925L19.337 5.893L19.199 5.801L19.107 5.663L19.075 5.5L19.5 4.905ZM20.925 5.5L20.893 5.663L20.801 5.801L20.663 5.893L20.5 5.925L20.337 5.893L20.199 5.801L20.107 5.663L20.075 5.5L20.5 4.905ZM8.925 6.5L8.893 6.663L8.801 6.801L8.663 6.893L8.5 6.925L8.337 6.893L8.199 6.801L8.107 6.663L8.075 6.5L8.5 5.905ZM10.925 6.5L10.893 6.663L10.801 6.801L10.663 6.893L10.5 6.925L10.337 6.893L10.199 6.801L10.107 6.663L10.075 6.5L10.5 5.905ZM12.925 6.5L12.893 6.663L12.801 6.801L12.663 6.893L12.5 6.925L12.337 6.893L12.199 6.801L12.107 6.663L12.075 6.5L12.5 5.905ZM14.925 6.5L14.893 6.663L14.801 6.801L14.663 6.893L14.5 6.925L14.337 6.893L14.199 6.801L14.107 6.663L14.075 6.5L14.5 5.905ZM16.925 6.5L16.893 6.663L16.801 6.801L16.663 6.893L16.5 6.925L16.337 6.893L16.199 6.801L16.107 6.663L16.075 6.5L16.5 5.905ZM18.925 6.5L18.893 6.663L18.801 6.801L18.663 6.893L18.5 6.925L18.337 6.893L18.199 6.801L18.107 6.663L18.075 6.5L18.5 5.905ZM20.925 6.5L20.893 6.663L20.801 6.801L20.663 6.893L20.5 6.925L20.337 6.893L20.199 6.801L20.107 6.663L20.075 6.5L20.5 5.905ZM9.925 7.5L9.893 7.663L9.801 7.801L9.663 7.893L9.5 7.925L9.337 7.893L9.199 7.801L9.107 7.663L9.075 7.5L9.5 6.905ZM10.925 7.5L10.893 7.663L10.801 7.801L10.663 7.893L10.5 7.925L10.337 7.893L10.199 7.801L10.107 7.663L10.075 7.5L10.5 6.905ZM12.925 7.5L12.893 7.663L12.801 7.801L12.663 7.893L12.5 7.925L12.337 7.893L12.199 7.801L12.107 7.663L12.075 7.5L12.5 6.905ZM14.925 7.5L14.893 7.663L14.801 7.801L14.663 7.893L14.5 7.925L14.337 7.893L14.199 7.801L14.107 7.663L14.075 7.5L14.5 6.905ZM15.925 7.5L15.893 7.663L15.801 7.801L15.663 7.893L15.5 7.925L15.337 7.893L15.199 7.801L15.107 7.663L15.075 7.5L15.5 6.905ZM16.925 7.5L16.893 7.663L16.801 7.801L16.663 7.893L16.5 7.925L16.337 7.893L16.199 7.801L16.107 7.663L16.075 7.5L16.5 6.905ZM19.925 7.5L19.893 7.663L19.801 7.801L19.663 7.893L19.5 7.925L19.337 7.893L19.199 7.801L19.107 7.663L19.075 7.5L19.5 6.905ZM20.925 7.5L20.893 7.663L20.801 7.801L20.663 7.893L20.5 7.925L20.337 7.893L20.199 7.801L20.107 7.663L20.075 7.5L20.5 6.905ZM1.925 8.5L1.893 8.663L1.801 8.801L1.663 8.893L1.5 8.925L1.337 8.893L1.199 8.801L1.107 8.663L1.075 8.5L1.5 7.905ZM4.925 8.5L4.893 8.663L4.801 8.801L4.663 8.893L4.5 8.925L4.337 8.893L4.199 8.801L4.107 8.663L4.075 8.5L4.5 7.905ZM6.925 8.5L6.893 8.663L6.801 8.801L6.663 8.893L6.5 8.925L6.337 8.893L6.199 8.801L6.107 8.663L6.075 8.5L6.5 7.905ZM8.925 8.5L8.893 8.663L8.801 8.801L8.663 8.893L8.5 8.925L8.337 8.893L8.199 8.801L8.107 8.663L8.075 8.5L8.5 7.905ZM9.925 8.5L9.893 8.663L9.801 8.801L9.663 8.893L9.5 8.925L9.337 8.893L9.199 8.801L9.107 8.663L9.075 8.5L9.5 7.905ZM10.925 8.5L10.893 8.663L10.801 8.801L10.663 8.893L10.5 8.925L10.337 8.893L10.199 8.801L10.107 8.663L10.075 8.5L10.5 7.905ZM11.925 8.5L11.893 8.663L11.801 8.801L11.663 8.893L11.5 8.925L11.337 8.893L11.199 8.801L11.107 8.663L11.075 8.5L11.5 7.905ZM15.925 8.5L15.893 8.663L15.801 8.801L15.663 8.893L15.5 8.925L15.337 8.893L15.199 8.801L15.107 8.663L15.075 8.5L15.5 7.905ZM19.925 8.5L19.893 8.663L19.801 8.801L19.663 8.893L19.5 8.925L19.337 8.893L19.199 8.801L19.107 8.663L19.075 8.5L19.5 7.905ZM20.925 8.5L20.893 8.663L20.801 8.801L20.663 8.893L20.5 8.925L20.337 8.893L20.199 8.801L20.107 8.663L20.075 8.5L20.5 7.905ZM21.925 8.5L21.893 8.663L21.801 8.801L21.663 8.893L21.5 8.925L21.337 8.893L21.199 8.801L21.107 8.663L21.075 8.5L21.5 7.905ZM23.925 8.5L23.893 8.663L23.801 8.801L23.663 8.893L23.5 8.925L23.337 8.893L23.199 8.801L23.107 8.663L23.075 8.5L23.5 7.905ZM24.925 8.5L24.893 8.663L24.801 8.801L24.663 8.893L24.5 8.925L24.337 8.893L24.199 8.801L24.107 8.663L24.075 8.5L24.5 7.905ZM26.925 8.5L26.893 8.663L26.801 8.801L26.663 8.893L26.5 8.925L26.337 8.893L26.199 8.801L26.107 8.663L26.075 8.5L26.5 7.905ZM0.925 9.5L0.893 9.663L0.801 9.801L0.663 9.893L0.5 9.925L0.337 9.893L0.199 9.801L0.107 9.663L0.075 9.5L0.5 8.905ZM1.925 9.5L1.893 9.663L1.801 9.801L1.663 9.893L1.5 9.925L1.337 9.893L1.199 9.801L1.107 9.663L1.075 9.5L1.5 8.905ZM4.925 9.5L4.893 9.663L4.801 9.801L4.663 9.893L4.5 9.925L4.337 9.893L4.199 9.801L4.107 9.663L4.075 9.5L4.5 8.905ZM7.925 9.5L7.893 9.663L7.801 9.801L7.663 9.893L7.5 9.925L7.337 9.893L7.199 9.801L7.107 9.663L7.075 9.5L7.5 8.905ZM8.925 9.5L8.893 9.663L8.801 9.801L8.663 9.893L8.5 9.925L8.337 9.893L8.199 9.801L8.107 9.663L8.075 9.5L8.5 8.905ZM9.925 9.5L9.893 9.663L9.801 9.801L9.663 9.893L9.5 9.925L9.337 9.893L9.199 9.801L9.107 9.663L9.075 9.5L9.5 8.905ZM11.925 9.5L11.893 9.663L11.801 9.801L11.663 9.893L11.5 9.925L11.337 9.893L11.199 9.801L11.107 9.663L11.075 9.5L11.5 8.905ZM13.925 9.5L13.893 9.663L13.801 9.801L13.663 9.893L13.5 9.925L13.337 9.893L13.199 9.801L13.107 9.663L13.075 9.5L13.5 8.905ZM16.925 9.5L16.893 9.663L16.801 9.801L16.663 9.893L16.5 9.925L16.337 9.893L16.199 9.801L16.107 9.663L16.075 9.5L16.5 8.905ZM18.925 9.5L18.893 9.663L18.801 9.801L18.663 9.893L18.5 9.925L18.337 9.893L18.199 9.801L18.107 9.663L18.075 9.5L18.5 8.905ZM19.925 9.5L19.893 9.663L19.801 9.801L19.663 9.893L19.5 9.925L19.337 9.893L19.199 9.801L19.107 9.663L19.075 9.5L19.5 8.905ZM23.925 9.5L23.893 9.663L23.801 9.801L23.663 9.893L23.5 9.925L23.337 9.893L23.199 9.801L23.107 9.663L23.075 9.5L23.5 8.905ZM26.925 9.5L26.893 9.663L26.801 9.801L26.663 9.893L26.5 9.925L26.337 9.893L26.199 9.801L26.107 9.663L26.075 9.5L26.5 8.905ZM27.925 9.5L27.893 9.663L27.801 9.801L27.663 9.893L27.5 9.925L27.337 9.893L27.199 9.801L27.107 9.663L27.075 9.5L27.5 8.905ZM28.925 9.5L28.893 9.663L28.801 9.801L28.663 9.893L28.5 9.925L28.337 9.893L28.199 9.801L28.107 9.663L28.075 9.5L28.5 8.905ZM0.925 10.5L0.893 10.663L0.801 10.801L0.663 10.893L0.5 10.925L0.337 10.893L0.199 10.801L0.107 10.663L0.075 10.5L0.5 9.905ZM2.925 10.5L2.893 10.663L2.801 10.801L2.663 10.893L2.5 10.925L2.337 10.893L2.199 10.801L2.107 10.663L2.075 10.5L2.5 9.905ZM3.925 10.5L3.893 10.663L3.801 10.801L3.663 10.893L3.5 10.925L3.337 10.893L3.199 10.801L3.107 10.663L3.075 10.5L3.5 9.905ZM6.925 10.5L6.893 10.663L6.801 10.801L6.663 10.893L6.5 10.925L6.337 10.893L6.199 10.801L6.107 10.663L6.075 10.5L6.5 9.905ZM7.925 10.5L7.893 10.663L7.801 10.801L7.663 10.893L7.5 10.925L7.337 10.893L7.199 10.801L7.107 10.663L7.075 10.5L7.5 9.905ZM8.925 10.5L8.893 10.663L8.801 10.801L8.663 10.893L8.5 10.925L8.337 10.893L8.199 10.801L8.107 10.663L8.075 10.5L8.5 9.905ZM9.925 10.5L9.893 10.663L9.801 10.801L9.663 10.893L9.5 10.925L9.337 10.893L9.199 10.801L9.107 10.663L9.075 10.5L9.5 9.905ZM10.925 10.5L10.893 10.663L10.801 10.801L10.663 10.893L10.5 10.925L10.337 10.893L10.199 10.801L10.107 10.663L10.075 10.5L10.5 9.905ZM11.925 10.5L11.893 10.663L11.801 10.801L11.663 10.893L11.5 10.925L11.337 10.893L11.199 10.801L11.107 10.663L11.075 10.5L11.5 9.905ZM12.925 10.5L12.893 10.663L12.801 10.801L12.663 10.893L12.5 10.925L12.337 10.893L12.199 10.801L12.107 10.663L12.075 10.5L12.5 9.905ZM13.925 10.5L13.893 10.663L13.801 10.801L13.663 10.893L13.5 10.925L13.337 10.893L13.199 10.801L13.107 10.663L13.075 10.5L13.5 9.905ZM15.925 10.5L15.893 10.663L15.801 10.801L15.663 10.893L15.5 10.925L15.337 10.893L15.199 10.801L15.107 10.663L15.075 10.5L15.5 9.905ZM16.925 10.5L16.893 10.663L16.801 10.801L16.663 10.893L16.5 10.925L16.337 10.893L16.199 10.801L16.107 10.663L16.075 10.5L16.5 9.905ZM18.925 10.5L18.893 10.663L18.801 10.801L18.663 10.893L18.5 10.925L18.337 10.893L18.199 10.801L18.107 10.663L18.075 10.5L18.5 9.905ZM19.925 10.5L19.893 10.663L19.801 10.801L19.663 10.893L19.5 10.925L19.337 10.893L19.199 10.801L19.107 10.663L19.075 10.5L19.5 9.905ZM22.925 10.5L22.893 10.663L22.801 10.801L22.663 10.893L22.5 10.925L22.337 10.893L22.199 10.801L22.107 10.663L22.075 10.5L22.5 9.905ZM23.925 10.5L23.893 10.663L23.801 10.801L23.663 10.893L23.5 10.925L23.337 10.893L23.199 10.801L23.107 10.663L23.075 10.5L23.5 9.905ZM24.925 10.5L24.893 10.663L24.801 10.801L24.663 10.893L24.5 10.925L24.337 10.893L24.199 10.801L24.107 10.663L24.075 10.5L24.5 9.905ZM26.925 10.5L26.893 10.663L26.801 10.801L26.663 10.893L26.5 10.925L26.337 10.893L26.199 10.801L26.107 10.663L26.075 10.5L26.5 9.905ZM27.925 10.5L27.893 10.663L27.801 10.801L27.663 10.893L27.5 10.925L27.337 10.893L27.199 10.801L27.107 10.663L27.075 10.5L27.5 9.905ZM28.925 10.5L28.893 10.663L28.801 10.801L28.663 10.893L28.5 10.925L28.337 10.893L28.199 10.801L28.107 10.663L28.075 10.5L28.5 9.905ZM0.925 11.5L0.893 11.663L0.801 11.801L0.663 11.893L0.5 11.925L0.337 11.893L0.199 11.801L0.107 11.663L0.075 11.5L0.5 10.905ZM3.925 11.5L3.893 11.663L3.801 11.801L3.663 11.893L3.5 11.925L3.337 11.893L3.199 11.801L3.107 11.663L3.075 11.5L3.5 10.905ZM4.925 11.5L4.893 11.663L4.801 11.801L4.663 11.893L4.5 11.925L4.337 11.893L4.199 11.801L4.107 11.663L4.075 11.5L4.5 10.905ZM5.925 11.5L5.893 11.663L5.801 11.801L5.663 11.893L5.5 11.925L5.337 11.893L5.199 11.801L5.107 11.663L5.075 11.5L5.5 10.905ZM7.925 11.5L7.893 11.663L7.801 11.801L7.663 11.893L7.5 11.925L7.337 11.893L7.199 11.801L7.107 11.663L7.075 11.5L7.5 10.905ZM8.925 11.5L8.893 11.663L8.801 11.801L8.663 11.893L8.5 11.925L8.337 11.893L8.199 11.801L8.107 11.663L8.075 11.5L8.5 10.905ZM9.925 11.5L9.893 11.663L9.801 11.801L9.663 11.893L9.5 11.925L9.337 11.893L9.199 11.801L9.107 11.663L9.075 11.5L9.5 10.905ZM10.925 11.5L10.893 11.663L10.801 11.801L10.663 11.893L10.5 11.925L10.337 11.893L10.199 11.801L10.107 11.663L10.075 11.5L10.5 10.905ZM11.925 11.5L11.893 11.663L11.801 11.801L11.663 11.893L11.5 11.925L11.337 11.893L11.199 11.801L11.107 11.663L11.075 11.5L11.5 10.905ZM16.925 11.5L16.893 11.663L16.801 11.801L16.663 11.893L16.5 11.925L16.337 11.893L16.199 11.801L16.107 11.663L16.075 11.5L16.5 10.905ZM17.925 11.5L17.893 11.663L17.801 11.801L17.663 11.893L17.5 11.925L17.337 11.893L17.199 11.801L17.107 11.663L17.075 11.5L17.5 10.905ZM19.925 11.5L19.893 11.663L19.801 11.801L19.663 11.893L19.5 11.925L19.337 11.893L19.199 11.801L19.107 11.663L19.075 11.5L19.5 10.905ZM20.925 11.5L20.893 11.663L20.801 11.801L20.663 11.893L20.5 11.925L20.337 11.893L20.199 11.801L20.107 11.663L20.075 11.5L20.5 10.905ZM24.925 11.5L24.893 11.663L24.801 11.801L24.663 11.893L24.5 11.925L24.337 11.893L24.199 11.801L24.107 11.663L24.075 11.5L24.5 10.905ZM28.925 11.5L28.893 11.663L28.801 11.801L28.663 11.893L28.5 11.925L28.337 11.893L28.199 11.801L28.107 11.663L28.075 11.5L28.5 10.905ZM3.925 12.5L3.893 12.663L3.801 12.801L3.663 12.893L3.5 12.925L3.337 12.893L3.199 12.801L3.107 12.663L3.075 12.5L3.5 11.905ZM6.925 12.5L6.893 12.663L6.801 12.801L6.663 12.893L6.5 12.925L6.337 12.893L6.199 12.801L6.107 12.663L6.075 12.5L6.5 11.905ZM7.925 12.5L7.893 12.663L7.801 12.801L7.663 12.893L7.5 12.925L7.337 12.893L7.199 12.801L7.107 12.663L7.075 12.5L7.5 11.905ZM8.925 12.5L8.893 12.663L8.801 12.801L8.663 12.893L8.5 12.925L8.337 12.893L8.199 12.801L8.107 12.663L8.075 12.5L8.5 11.905ZM9.925 12.5L9.893 12.663L9.801 12.801L9.663 12.893L9.5 12.925L9.337 12.893L9.199 12.801L9.107 12.663L9.075 12.5L9.5 11.905ZM12.925 12.5L12.893 12.663L12.801 12.801L12.663 12.893L12.5 12.925L12.337 12.893L12.199 12.801L12.107 12.663L12.075 12.5L12.5 11.905ZM15.925 12.5L15.893 12.663L15.801 12.801L15.663 12.893L15.5 12.925L15.337 12.893L15.199 12.801L15.107 12.663L15.075 12.5L15.5 11.905ZM16.925 12.5L16.893 12.663L16.801 12.801L16.663 12.893L16.5 12.925L16.337 12.893L16.199 12.801L16.107 12.663L16.075 12.5L16.5 11.905ZM18.925 12.5L18.893 12.663L18.801 12.801L18.663 12.893L18.5 12.925L18.337 12.893L18.199 12.801L18.107 12.663L18.075 12.5L18.5 11.905ZM24.925 12.5L24.893 12.663L24.801 12.801L24.663 12.893L24.5 12.925L24.337 12.893L24.199 12.801L24.107 12.663L24.075 12.5L24.5 11.905ZM0.925 13.5L0.893 13.663L0.801 13.801L0.663 13.893L0.5 13.925L0.337 13.893L0.199 13.801L0.107 13.663L0.075 13.5L0.5 12.905ZM2.925 13.5L2.893 13.663L2.801 13.801L2.663 13.893L2.5 13.925L2.337 13.893L2.199 13.801L2.107 13.663L2.075 13.5L2.5 12.905ZM5.925 13.5L5.893 13.663L5.801 13.801L5.663 13.893L5.5 13.925L5.337 13.893L5.199 13.801L5.107 13.663L5.075 13.5L5.5 12.905ZM7.925 13.5L7.893 13.663L7.801 13.801L7.663 13.893L7.5 13.925L7.337 13.893L7.199 13.801L7.107 13.663L7.075 13.5L7.5 12.905ZM11.925 13.5L11.893 13.663L11.801 13.801L11.663 13.893L11.5 13.925L11.337 13.893L11.199 13.801L11.107 13.663L11.075 13.5L11.5 12.905ZM12.925 13.5L12.893 13.663L12.801 13.801L12.663 13.893L12.5 13.925L12.337 13.893L12.199 13.801L12.107 13.663L12.075 13.5L12.5 12.905ZM13.925 13.5L13.893 13.663L13.801 13.801L13.663 13.893L13.5 13.925L13.337 13.893L13.199 13.801L13.107 13.663L13.075 13.5L13.5 12.905ZM15.925 13.5L15.893 13.663L15.801 13.801L15.663 13.893L15.5 13.925L15.337 13.893L15.199 13.801L15.107 13.663L15.075 13.5L15.5 12.905ZM16.925 13.5L16.893 13.663L16.801 13.801L16.663 13.893L16.5 13.925L16.337 13.893L16.199 13.801L16.107 13.663L16.075 13.5L16.5 12.905ZM21.925 13.5L21.893 13.663L21.801 13.801L21.663 13.893L21.5 13.925L21.337 13.893L21.199 13.801L21.107 13.663L21.075 13.5L21.5 12.905ZM22.925 13.5L22.893 13.663L22.801 13.801L22.663 13.893L22.5 13.925L22.337 13.893L22.199 13.801L22.107 13.663L22.075 13.5L22.5 12.905ZM24.925 13.5L24.893 13.663L24.801 13.801L24.663 13.893L24.5 13.925L24.337 13.893L24.199 13.801L24.107 13.663L24.075 13.5L24.5 12.905ZM26.925 13.5L26.893 13.663L26.801 13.801L26.663 13.893L26.5 13.925L26.337 13.893L26.199 13.801L26.107 13.663L26.075 13.5L26.5 12.905ZM28.925 13.5L28.893 13.663L28.801 13.801L28.663 13.893L28.5 13.925L28.337 13.893L28.199 13.801L28.107 13.663L28.075 13.5L28.5 12.905ZM0.925 14.5L0.893 14.663L0.801 14.801L0.663 14.893L0.5 14.925L0.337 14.893L0.199 14.801L0.107 14.663L0.075 14.5L0.5 13.905ZM3.925 14.5L3.893 14.663L3.801 14.801L3.663 14.893L3.5 14.925L3.337 14.893L3.199 14.801L3.107 14.663L3.075 14.5L3.5 13.905ZM5.925 14.5L5.893 14.663L5.801 14.801L5.663 14.893L5.5 14.925L5.337 14.893L5.199 14.801L5.107 14.663L5.075 14.5L5.5 13.905ZM6.925 14.5L6.893 14.663L6.801 14.801L6.663 14.893L6.5 14.925L6.337 14.893L6.199 14.801L6.107 14.663L6.075 14.5L6.5 13.905ZM9.925 14.5L9.893 14.663L9.801 14.801L9.663 14.893L9.5 14.925L9.337 14.893L9.199 14.801L9.107 14.663L9.075 14.5L9.5 13.905ZM11.925 14.5L11.893 14.663L11.801 14.801L11.663 14.893L11.5 14.925L11.337 14.893L11.199 14.801L11.107 14.663L11.075 14.5L11.5 13.905ZM13.925 14.5L13.893 14.663L13.801 14.801L13.663 14.893L13.5 14.925L13.337 14.893L13.199 14.801L13.107 14.663L13.075 14.5L13.5 13.905ZM14.925 14.5L14.893 14.663L14.801 14.801L14.663 14.893L14.5 14.925L14.337 14.893L14.199 14.801L14.107 14.663L14.075 14.5L14.5 13.905ZM15.925 14.5L15.893 14.663L15.801 14.801L15.663 14.893L15.5 14.925L15.337 14.893L15.199 14.801L15.107 14.663L15.075 14.5L15.5 13.905ZM17.925 14.5L17.893 14.663L17.801 14.801L17.663 14.893L17.5 14.925L17.337 14.893L17.199 14.801L17.107 14.663L17.075 14.5L17.5 13.905ZM19.925 14.5L19.893 14.663L19.801 14.801L19.663 14.893L19.5 14.925L19.337 14.893L19.199 14.801L19.107 14.663L19.075 14.5L19.5 13.905ZM21.925 14.5L21.893 14.663L21.801 14.801L21.663 14.893L21.5 14.925L21.337 14.893L21.199 14.801L21.107 14.663L21.075 14.5L21.5 13.905ZM22.925 14.5L22.893 14.663L22.801 14.801L22.663 14.893L22.5 14.925L22.337 14.893L22.199 14.801L22.107 14.663L22.075 14.5L22.5 13.905ZM24.925 14.5L24.893 14.663L24.801 14.801L24.663 14.893L24.5 14.925L24.337 14.893L24.199 14.801L24.107 14.663L24.075 14.5L24.5 13.905ZM26.925 14.5L26.893 14.663L26.801 14.801L26.663 14.893L26.5 14.925L26.337 14.893L26.199 14.801L26.107 14.663L26.075 14.5L26.5 13.905ZM4.925 15.5L4.893 15.663L4.801 15.801L4.663 15.893L4.5 15.925L4.337 15.893L4.199 15.801L4.107 15.663L4.075 15.5L4.5 14.905ZM5.925 15.5L5.893 15.663L5.801 15.801L5.663 15.893L5.5 15.925L5.337 15.893L5.199 15.801L5.107 15.663L5.075 15.5L5.5 14.905ZM12.925 15.5L12.893 15.663L12.801 15.801L12.663 15.893L12.5 15.925L12.337 15.893L12.199 15.801L12.107 15.663L12.075 15.5L12.5 14.905ZM14.925 15.5L14.893 15.663L14.801 15.801L14.663 15.893L14.5 15.925L14.337 15.893L14.199 15.801L14.107 15.663L14.075 15.5L14.5 14.905ZM15.925 15.5L15.893 15.663L15.801 15.801L15.663 15.893L15.5 15.925L15.337 15.893L15.199 15.801L15.107 15.663L15.075 15.5L15.5 14.905ZM16.925 15.5L16.893 15.663L16.801 15.801L16.663 15.893L16.5 15.925L16.337 15.893L16.199 15.801L16.107 15.663L16.075 15.5L16.5 14.905ZM17.925 15.5L17.893 15.663L17.801 15.801L17.663 15.893L17.5 15.925L17.337 15.893L17.199 15.801L17.107 15.663L17.075 15.5L17.5 14.905ZM18.925 15.5L18.893 15.663L18.801 15.801L18.663 15.893L18.5 15.925L18.337 15.893L18.199 15.801L18.107 15.663L18.075 15.5L18.5 14.905ZM19.925 15.5L19.893 15.663L19.801 15.801L19.663 15.893L19.5 15.925L19.337 15.893L19.199 15.801L19.107 15.663L19.075 15.5L19.5 14.905ZM22.925 15.5L22.893 15.663L22.801 15.801L22.663 15.893L22.5 15.925L22.337 15.893L22.199 15.801L22.107 15.663L22.075 15.5L22.5 14.905ZM26.925 15.5L26.893 15.663L26.801 15.801L26.663 15.893L26.5 15.925L26.337 15.893L26.199 15.801L26.107 15.663L26.075 15.5L26.5 14.905ZM27.925 15.5L27.893 15.663L27.801 15.801L27.663 15.893L27.5 15.925L27.337 15.893L27.199 15.801L27.107 15.663L27.075 15.5L27.5 14.905ZM0.925 16.5L0.893 16.663L0.801 16.801L0.663 16.893L0.5 16.925L0.337 16.893L0.199 16.801L0.107 16.663L0.075 16.5L0.5 15.905ZM1.925 16.5L1.893 16.663L1.801 16.801L1.663 16.893L1.5 16.925L1.337 16.893L1.199 16.801L1.107 16.663L1.075 16.5L1.5 15.905ZM3.925 16.5L3.893 16.663L3.801 16.801L3.663 16.893L3.5 16.925L3.337 16.893L3.199 16.801L3.107 16.663L3.075 16.5L3.5 15.905ZM6.925 16.5L6.893 16.663L6.801 16.801L6.663 16.893L6.5 16.925L6.337 16.893L6.199 16.801L6.107 16.663L6.075 16.5L6.5 15.905ZM7.925 16.5L7.893 16.663L7.801 16.801L7.663 16.893L7.5 16.925L7.337 16.893L7.199 16.801L7.107 16.663L7.075 16.5L7.5 15.905ZM8.925 16.5L8.893 16.663L8.801 16.801L8.663 16.893L8.5 16.925L8.337 16.893L8.199 16.801L8.107 16.663L8.075 16.5L8.5 15.905ZM11.925 16.5L11.893 16.663L11.801 16.801L11.663 16.893L11.5 16.925L11.337 16.893L11.199 16.801L11.107 16.663L11.075 16.5L11.5 15.905ZM12.925 16.5L12.893 16.663L12.801 16.801L12.663 16.893L12.5 16.925L12.337 16.893L12.199 16.801L12.107 16.663L12.075 16.5L12.5 15.905ZM13.925 16.5L13.893 16.663L13.801 16.801L13.663 16.893L13.5 16.925L13.337 16.893L13.199 16.801L13.107 16.663L13.075 16.5L13.5 15.905ZM18.925 16.5L18.893 16.663L18.801 16.801L18.663 16.893L18.5 16.925L18.337 16.893L18.199 16.801L18.107 16.663L18.075 16.5L18.5 15.905ZM19.925 16.5L19.893 16.663L19.801 16.801L19.663 16.893L19.5 16.925L19.337 16.893L19.199 16.801L19.107 16.663L19.075 16.5L19.5 15.905ZM24.925 16.5L24.893 16.663L24.801 16.801L24.663 16.893L24.5 16.925L24.337 16.893L24.199 16.801L24.107 16.663L24.075 16.5L24.5 15.905ZM25.925 16.5L25.893 16.663L25.801 16.801L25.663 16.893L25.5 16.925L25.337 16.893L25.199 16.801L25.107 16.663L25.075 16.5L25.5 15.905ZM26.925 16.5L26.893 16.663L26.801 16.801L26.663 16.893L26.5 16.925L26.337 16.893L26.199 16.801L26.107 16.663L26.075 16.5L26.5 15.905ZM0.925 17.5L0.893 17.663L0.801 17.801L0.663 17.893L0.5 17.925L0.337 17.893L0.199 17.801L0.107 17.663L0.075 17.5L0.5 16.905ZM3.925 17.5L3.893 17.663L3.801 17.801L3.663 17.893L3.5 17.925L3.337 17.893L3.199 17.801L3.107 17.663L3.075 17.5L3.5 16.905ZM4.925 17.5L4.893 17.663L4.801 17.801L4.663 17.893L4.5 17.925L4.337 17.893L4.199 17.801L4.107 17.663L4.075 17.5L4.5 16.905ZM7.925 17.5L7.893 17.663L7.801 17.801L7.663 17.893L7.5 17.925L7.337 17.893L7.199 17.801L7.107 17.663L7.075 17.5L7.5 16.905ZM8.925 17.5L8.893 17.663L8.801 17.801L8.663 17.893L8.5 17.925L8.337 17.893L8.199 17.801L8.107 17.663L8.075 17.5L8.5 16.905ZM9.925 17.5L9.893 17.663L9.801 17.801L9.663 17.893L9.5 17.925L9.337 17.893L9.199 17.801L9.107 17.663L9.075 17.5L9.5 16.905ZM12.925 17.5L12.893 17.663L12.801 17.801L12.663 17.893L12.5 17.925L12.337 17.893L12.199 17.801L12.107 17.663L12.075 17.5L12.5 16.905ZM16.925 17.5L16.893 17.663L16.801 17.801L16.663 17.893L16.5 17.925L16.337 17.893L16.199 17.801L16.107 17.663L16.075 17.5L16.5 16.905ZM19.925 17.5L19.893 17.663L19.801 17.801L19.663 17.893L19.5 17.925L19.337 17.893L19.199 17.801L19.107 17.663L19.075 17.5L19.5 16.905ZM20.925 17.5L20.893 17.663L20.801 17.801L20.663 17.893L20.5 17.925L20.337 17.893L20.199 17.801L20.107 17.663L20.075 17.5L20.5 16.905ZM21.925 17.5L21.893 17.663L21.801 17.801L21.663 17.893L21.5 17.925L21.337 17.893L21.199 17.801L21.107 17.663L21.075 17.5L21.5 16.905ZM24.925 17.5L24.893 17.663L24.801 17.801L24.663 17.893L24.5 17.925L24.337 17.893L24.199 17.801L24.107 17.663L24.075 17.5L24.5 16.905ZM26.925 17.5L26.893 17.663L26.801 17.801L26.663 17.893L26.5 17.925L26.337 17.893L26.199 17.801L26.107 17.663L26.075 17.5L26.5 16.905ZM2.925 18.5L2.893 18.663L2.801 18.801L2.663 18.893L2.5 18.925L2.337 18.893L2.199 18.801L2.107 18.663L2.075 18.5L2.5 17.905ZM6.925 18.5L6.893 18.663L6.801 18.801L6.663 18.893L6.5 18.925L6.337 18.893L6.199 18.801L6.107 18.663L6.075 18.5L6.5 17.905ZM9.925 18.5L9.893 18.663L9.801 18.801L9.663 18.893L9.5 18.925L9.337 18.893L9.199 18.801L9.107 18.663L9.075 18.5L9.5 17.905ZM10.925 18.5L10.893 18.663L10.801 18.801L10.663 18.893L10.5 18.925L10.337 18.893L10.199 18.801L10.107 18.663L10.075 18.5L10.5 17.905ZM14.925 18.5L14.893 18.663L14.801 18.801L14.663 18.893L14.5 18.925L14.337 18.893L14.199 18.801L14.107 18.663L14.075 18.5L14.5 17.905ZM16.925 18.5L16.893 18.663L16.801 18.801L16.663 18.893L16.5 18.925L16.337 18.893L16.199 18.801L16.107 18.663L16.075 18.5L16.5 17.905ZM18.925 18.5L18.893 18.663L18.801 18.801L18.663 18.893L18.5 18.925L18.337 18.893L18.199 18.801L18.107 18.663L18.075 18.5L18.5 17.905ZM20.925 18.5L20.893 18.663L20.801 18.801L20.663 18.893L20.5 18.925L20.337 18.893L20.199 18.801L20.107 18.663L20.075 18.5L20.5 17.905ZM21.925 18.5L21.893 18.663L21.801 18.801L21.663 18.893L21.5 18.925L21.337 18.893L21.199 18.801L21.107 18.663L21.075 18.5L21.5 17.905ZM22.925 18.5L22.893 18.663L22.801 18.801L22.663 18.893L22.5 18.925L22.337 18.893L22.199 18.801L22.107 18.663L22.075 18.5L22.5 17.905ZM23.925 18.5L23.893 18.663L23.801 18.801L23.663 18.893L23.5 18.925L23.337 18.893L23.199 18.801L23.107 18.663L23.075 18.5L23.5 17.905ZM26.925 18.5L26.893 18.663L26.801 18.801L26.663 18.893L26.5 18.925L26.337 18.893L26.199 18.801L26.107 18.663L26.075 18.5L26.5 17.905ZM28.925 18.5L28.893 18.663L28.801 18.801L28.663 18.893L28.5 18.925L28.337 18.893L28.199 18.801L28.107 18.663L28.075 18.5L28.5 17.905ZM2.925 19.5L2.893 19.663L2.801 19.801L2.663 19.893L2.5 19.925L2.337 19.893L2.199 19.801L2.107 19.663L2.075 19.5L2.5 18.905ZM3.925 19.5L3.893 19.663L3.801 19.801L3.663 19.893L3.5 19.925L3.337 19.893L3.199 19.801L3.107 19.663L3.075 19.5L3.5 18.905ZM4.925 19.5L4.893 19.663L4.801 19.801L4.663 19.893L4.5 19.925L4.337 19.893L4.199 19.801L4.107 19.663L4.075 19.5L4.5 18.905ZM9.925 19.5L9.893 19.663L9.801 19.801L9.663 19.893L9.5 19.925L9.337 19.893L9.199 19.801L9.107 19.663L9.075 19.5L9.5 18.905ZM10.925 19.5L10.893 19.663L10.801 19.801L10.663 19.893L10.5 19.925L10.337 19.893L10.199 19.801L10.107 19.663L10.075 19.5L10.5 18.905ZM11.925 19.5L11.893 19.663L11.801 19.801L11.663 19.893L11.5 19.925L11.337 19.893L11.199 19.801L11.107 19.663L11.075 19.5L11.5 18.905ZM12.925 19.5L12.893 19.663L12.801 19.801L12.663 19.893L12.5 19.925L12.337 19.893L12.199 19.801L12.107 19.663L12.075 19.5L12.5 18.905ZM13.925 19.5L13.893 19.663L13.801 19.801L13.663 19.893L13.5 19.925L13.337 19.893L13.199 19.801L13.107 19.663L13.075 19.5L13.5 18.905ZM23.925 19.5L23.893 19.663L23.801 19.801L23.663 19.893L23.5 19.925L23.337 19.893L23.199 19.801L23.107 19.663L23.075 19.5L23.5 18.905ZM25.925 19.5L25.893 19.663L25.801 19.801L25.663 19.893L25.5 19.925L25.337 19.893L25.199 19.801L25.107 19.663L25.075 19.5L25.5 18.905ZM26.925 19.5L26.893 19.663L26.801 19.801L26.663 19.893L26.5 19.925L26.337 19.893L26.199 19.801L26.107 19.663L26.075 19.5L26.5 18.905ZM27.925 19.5L27.893 19.663L27.801 19.801L27.663 19.893L27.5 19.925L27.337 19.893L27.199 19.801L27.107 19.663L27.075 19.5L27.5 18.905ZM0.925 20.5L0.893 20.663L0.801 20.801L0.663 20.893L0.5 20.925L0.337 20.893L0.199 20.801L0.107 20.663L0.075 20.5L0.5 19.905ZM1.925 20.5L1.893 20.663L1.801 20.801L1.663 20.893L1.5 20.925L1.337 20.893L1.199 20.801L1.107 20.663L1.075 20.5L1.5 19.905ZM4.925 20.5L4.893 20.663L4.801 20.801L4.663 20.893L4.5 20.925L4.337 20.893L4.199 20.801L4.107 20.663L4.075 20.5L4.5 19.905ZM6.925 20.5L6.893 20.663L6.801 20.801L6.663 20.893L6.5 20.925L6.337 20.893L6.199 20.801L6.107 20.663L6.075 20.5L6.5 19.905ZM7.925 20.5L7.893 20.663L7.801 20.801L7.663 20.893L7.5 20.925L7.337 20.893L7.199 20.801L7.107 20.663L7.075 20.5L7.5 19.905ZM9.925 20.5L9.893 20.663L9.801 20.801L9.663 20.893L9.5 20.925L9.337 20.893L9.199 20.801L9.107 20.663L9.075 20.5L9.5 19.905ZM11.925 20.5L11.893 20.663L11.801 20.801L11.663 20.893L11.5 20.925L11.337 20.893L11.199 20.801L11.107 20.663L11.075 20.5L11.5 19.905ZM13.925 20.5L13.893 20.663L13.801 20.801L13.663 20.893L13.5 20.925L13.337 20.893L13.199 20.801L13.107 20.663L13.075 20.5L13.5 19.905ZM14.925 20.5L14.893 20.663L14.801 20.801L14.663 20.893L14.5 20.925L14.337 20.893L14.199 20.801L14.107 20.663L14.075 20.5L14.5 19.905ZM15.925 20.5L15.893 20.663L15.801 20.801L15.663 20.893L15.5 20.925L15.337 20.893L15.199 20.801L15.107 20.663L15.075 20.5L15.5 19.905ZM19.925 20.5L19.893 20.663L19.801 20.801L19.663 20.893L19.5 20.925L19.337 20.893L19.199 20.801L19.107 20.663L19.075 20.5L19.5 19.905ZM20.925 20.5L20.893 20.663L20.801 20.801L20.663 20.893L20.5 20.925L20.337 20.893L20.199 20.801L20.107 20.663L20.075 20.5L20.5 19.905ZM21.925 20.5L21.893 20.663L21.801 20.801L21.663 20.893L21.5 20.925L21.337 20.893L21.199 20.801L21.107 20.663L21.075 20.5L21.5 19.905ZM22.925 20.5L22.893 20.663L22.801 20.801L22.663 20.893L22.5 20.925L22.337 20.893L22.199 20.801L22.107 20.663L22.075 20.5L22.5 19.905ZM23.925 20.5L23.893 20.663L23.801 20.801L23.663 20.893L23.5 20.925L23.337 20.893L23.199 20.801L23.107 20.663L23.075 20.5L23.5 19.905ZM24.925 20.5L24.893 20.663L24.801 20.801L24.663 20.893L24.5 20.925L24.337 20.893L24.199 20.801L24.107 20.663L24.075 20.5L24.5 19.905ZM28.925 20.5L28.893 20.663L28.801 20.801L28.663 20.893L28.5 20.925L28.337 20.893L28.199 20.801L28.107 20.663L28.075 20.5L28.5 19.905ZM8.925 21.5L8.893 21.663L8.801 21.801L8.663 21.893L8.5 21.925L8.337 21.893L8.199 21.801L8.107 21.663L8.075 21.5L8.5 20.905ZM9.925 21.5L9.893 21.663L9.801 21.801L9.663 21.893L9.5 21.925L9.337 21.893L9.199 21.801L9.107 21.663L9.075 21.5L9.5 20.905ZM10.925 21.5L10.893 21.663L10.801 21.801L10.663 21.893L10.5 21.925L10.337 21.893L10.199 21.801L10.107 21.663L10.075 21.5L10.5 20.905ZM12.925 21.5L12.893 21.663L12.801 21.801L12.663 21.893L12.5 21.925L12.337 21.893L12.199 21.801L12.107 21.663L12.075 21.5L12.5 20.905ZM13.925 21.5L13.893 21.663L13.801 21.801L13.663 21.893L13.5 21.925L13.337 21.893L13.199 21.801L13.107 21.663L13.075 21.5L13.5 20.905ZM14.925 21.5L14.893 21.663L14.801 21.801L14.663 21.893L14.5 21.925L14.337 21.893L14.199 21.801L14.107 21.663L14.075 21.5L14.5 20.905ZM16.925 21.5L16.893 21.663L16.801 21.801L16.663 21.893L16.5 21.925L16.337 21.893L16.199 21.801L16.107 21.663L16.075 21.5L16.5 20.905ZM17.925 21.5L17.893 21.663L17.801 21.801L17.663 21.893L17.5 21.925L17.337 21.893L17.199 21.801L17.107 21.663L17.075 21.5L17.5 20.905ZM20.925 21.5L20.893 21.663L20.801 21.801L20.663 21.893L20.5 21.925L20.337 21.893L20.199 21.801L20.107 21.663L20.075 21.5L20.5 20.905ZM24.925 21.5L24.893 21.663L24.801 21.801L24.663 21.893L24.5 21.925L24.337 21.893L24.199 21.801L24.107 21.663L24.075 21.5L24.5 20.905ZM26.925 21.5L26.893 21.663L26.801 21.801L26.663 21.893L26.5 21.925L26.337 21.893L26.199 21.801L26.107 21.663L26.075 21.5L26.5 20.905ZM27.925 21.5L27.893 21.663L27.801 21.801L27.663 21.893L27.5 21.925L27.337 21.893L27.199 21.801L27.107 21.663L27.075 21.5L27.5 20.905ZM16.925 22.5L16.893 22.663L16.801 22.801L16.663 22.893L16.5 22.925L16.337 22.893L16.199 22.801L16.107 22.663L16.075 22.5L16.5 21.905ZM18.925 22.5L18.893 22.663L18.801 22.801L18.663 22.893L18.5 22.925L18.337 22.893L18.199 22.801L18.107 22.663L18.075 22.5L18.5 21.905ZM19.925 22.5L19.893 22.663L19.801 22.801L19.663 22.893L19.5 22.925L19.337 22.893L19.199 22.801L19.107 22.663L19.075 22.5L19.5 21.905ZM20.925 22.5L20.893 22.663L20.801 22.801L20.663 22.893L20.5 22.925L20.337 22.893L20.199 22.801L20.107 22.663L20.075 22.5L20.5 21.905ZM22.925 22.5L22.893 22.663L22.801 22.801L22.663 22.893L22.5 22.925L22.337 22.893L22.199 22.801L22.107 22.663L22.075 22.5L22.5 21.905ZM24.925 22.5L24.893 22.663L24.801 22.801L24.663 22.893L24.5 22.925L24.337 22.893L24.199 22.801L24.107 22.663L24.075 22.5L24.5 21.905ZM25.925 22.5L25.893 22.663L25.801 22.801L25.663 22.893L25.5 22.925L25.337 22.893L25.199 22.801L25.107 22.663L25.075 22.5L25.5 21.905ZM26.925 22.5L26.893 22.663L26.801 22.801L26.663 22.893L26.5 22.925L26.337 22.893L26.199 22.801L26.107 22.663L26.075 22.5L26.5 21.905ZM28.925 22.5L28.893 22.663L28.801 22.801L28.663 22.893L28.5 22.925L28.337 22.893L28.199 22.801L28.107 22.663L28.075 22.5L28.5 21.905ZM9.925 23.5L9.893 23.663L9.801 23.801L9.663 23.893L9.5 23.925L9.337 23.893L9.199 23.801L9.107 23.663L9.075 23.5L9.5 22.905ZM10.925 23.5L10.893 23.663L10.801 23.801L10.663 23.893L10.5 23.925L10.337 23.893L10.199 23.801L10.107 23.663L10.075 23.5L10.5 22.905ZM12.925 23.5L12.893 23.663L12.801 23.801L12.663 23.893L12.5 23.925L12.337 23.893L12.199 23.801L12.107 23.663L12.075 23.5L12.5 22.905ZM19.925 23.5L19.893 23.663L19.801 23.801L19.663 23.893L19.5 23.925L19.337 23.893L19.199 23.801L19.107 23.663L19.075 23.5L19.5 22.905ZM20.925 23.5L20.893 23.663L20.801 23.801L20.663 23.893L20.5 23.925L20.337 23.893L20.199 23.801L20.107 23.663L20.075 23.5L20.5 22.905ZM24.925 23.5L24.893 23.663L24.801 23.801L24.663 23.893L24.5 23.925L24.337 23.893L24.199 23.801L24.107 23.663L24.075 23.5L24.5 22.905ZM25.925 23.5L25.893 23.663L25.801 23.801L25.663 23.893L25.5 23.925L25.337 23.893L25.199 23.801L25.107 23.663L25.075 23.5L25.5 22.905ZM27.925 23.5L27.893 23.663L27.801 23.801L27.663 23.893L27.5 23.925L27.337 23.893L27.199 23.801L27.107 23.663L27.075 23.5L27.5 22.905ZM8.925 24.5L8.893 24.663L8.801 24.801L8.663 24.893L8.5 24.925L8.337 24.893L8.199 24.801L8.107 24.663L8.075 24.5L8.5 23.905ZM9.925 24.5L9.893 24.663L9.801 24.801L9.663 24.893L9.5 24.925L9.337 24.893L9.199 24.801L9.107 24.663L9.075 24.5L9.5 23.905ZM11.925 24.5L11.893 24.663L11.801 24.801L11.663 24.893L11.5 24.925L11.337 24.893L11.199 24.801L11.107 24.663L11.075 24.5L11.5 23.905ZM12.925 24.5L12.893 24.663L12.801 24.801L12.663 24.893L12.5 24.925L12.337 24.893L12.199 24.801L12.107 24.663L12.075 24.5L12.5 23.905ZM16.925 24.5L16.893 24.663L16.801 24.801L16.663 24.893L16.5 24.925L16.337 24.893L16.199 24.801L16.107 24.663L16.075 24.5L16.5 23.905ZM20.925 24.5L20.893 24.663L20.801 24.801L20.663 24.893L20.5 24.925L20.337 24.893L20.199 24.801L20.107 24.663L20.075 24.5L20.5 23.905ZM21.925 24.5L21.893 24.663L21.801 24.801L21.663 24.893L21.5 24.925L21.337 24.893L21.199 24.801L21.107 24.663L21.075 24.5L21.5 23.905ZM22.925 24.5L22.893 24.663L22.801 24.801L22.663 24.893L22.5 24.925L22.337 24.893L22.199 24.801L22.107 24.663L22.075 24.5L22.5 23.905ZM23.925 24.5L23.893 24.663L23.801 24.801L23.663 24.893L23.5 24.925L23.337 24.893L23.199 24.801L23.107 24.663L23.075 24.5L23.5 23.905ZM24.925 24.5L24.893 24.663L24.801 24.801L24.663 24.893L24.5 24.925L24.337 24.893L24.199 24.801L24.107 24.663L24.075 24.5L24.5 23.905ZM25.925 24.5L25.893 24.663L25.801 24.801L25.663 24.893L25.5 24.925L25.337 24.893L25.199 24.801L25.107 24.663L25.075 24.5L25.5 23.905ZM26.925 24.5L26.893 24.663L26.801 24.801L26.663 24.893L26.5 24.925L26.337 24.893L26.199 24.801L26.107 24.663L26.075 24.5L26.5 23.905ZM27.925 24.5L27.893 24.663L27.801 24.801L27.663 24.893L27.5 24.925L27.337 24.893L27.199 24.801L27.107 24.663L27.075 24.5L27.5 23.905ZM9.925 25.5L9.893 25.663L9.801 25.801L9.663 25.893L9.5 25.925L9.337 25.893L9.199 25.801L9.107 25.663L9.075 25.5L9.5 24.905ZM11.925 25.5L11.893 25.663L11.801 25.801L11.663 25.893L11.5 25.925L11.337 25.893L11.199 25.801L11.107 25.663L11.075 25.5L11.5 24.905ZM13.925 25.5L13.893 25.663L13.801 25.801L13.663 25.893L13.5 25.925L13.337 25.893L13.199 25.801L13.107 25.663L13.075 25.5L13.5 24.905ZM14.925 25.5L14.893 25.663L14.801 25.801L14.663 25.893L14.5 25.925L14.337 25.893L14.199 25.801L14.107 25.663L14.075 25.5L14.5 24.905ZM18.925 25.5L18.893 25.663L18.801 25.801L18.663 25.893L18.5 25.925L18.337 25.893L18.199 25.801L18.107 25.663L18.075 25.5L18.5 24.905ZM19.925 25.5L19.893 25.663L19.801 25.801L19.663 25.893L19.5 25.925L19.337 25.893L19.199 25.801L19.107 25.663L19.075 25.5L19.5 24.905ZM22.925 25.5L22.893 25.663L22.801 25.801L22.663 25.893L22.5 25.925L22.337 25.893L22.199 25.801L22.107 25.663L22.075 25.5L22.5 24.905ZM24.925 25.5L24.893 25.663L24.801 25.801L24.663 25.893L24.5 25.925L24.337 25.893L24.199 25.801L24.107 25.663L24.075 25.5L24.5 24.905ZM26.925 25.5L26.893 25.663L26.801 25.801L26.663 25.893L26.5 25.925L26.337 25.893L26.199 25.801L26.107 25.663L26.075 25.5L26.5 24.905ZM27.925 25.5L27.893 25.663L27.801 25.801L27.663 25.893L27.5 25.925L27.337 25.893L27.199 25.801L27.107 25.663L27.075 25.5L27.5 24.905ZM10.925 26.5L10.893 26.663L10.801 26.801L10.663 26.893L10.5 26.925L10.337 26.893L10.199 26.801L10.107 26.663L10.075 26.5L10.5 25.905ZM12.925 26.5L12.893 26.663L12.801 26.801L12.663 26.893L12.5 26.925L12.337 26.893L12.199 26.801L12.107 26.663L12.075 26.5L12.5 25.905ZM14.925 26.5L14.893 26.663L14.801 26.801L14.663 26.893L14.5 26.925L14.337 26.893L14.199 26.801L14.107 26.663L14.075 26.5L14.5 25.905ZM15.925 26.5L15.893 26.663L15.801 26.801L15.663 26.893L15.5 26.925L15.337 26.893L15.199 26.801L15.107 26.663L15.075 26.5L15.5 25.905ZM18.925 26.5L18.893 26.663L18.801 26.801L18.663 26.893L18.5 26.925L18.337 26.893L18.199 26.801L18.107 26.663L18.075 26.5L18.5 25.905ZM21.925 26.5L21.893 26.663L21.801 26.801L21.663 26.893L21.5 26.925L21.337 26.893L21.199 26.801L21.107 26.663L21.075 26.5L21.5 25.905ZM26.925 26.5L26.893 26.663L26.801 26.801L26.663 26.893L26.5 26.925L26.337 26.893L26.199 26.801L26.107 26.663L26.075 26.5L26.5 25.905ZM27.925 26.5L27.893 26.663L27.801 26.801L27.663 26.893L27.5 26.925L27.337 26.893L27.199 26.801L27.107 26.663L27.075 26.5L27.5 25.905ZM28.925 26.5L28.893 26.663L28.801 26.801L28.663 26.893L28.5 26.925L28.337 26.893L28.199 26.801L28.107 26.663L28.075 26.5L28.5 25.905ZM8.925 27.5L8.893 27.663L8.801 27.801L8.663 27.893L8.5 27.925L8.337 27.893L8.199 27.801L8.107 27.663L8.075 27.5L8.5 26.905ZM10.925 27.5L10.893 27.663L10.801 27.801L10.663 27.893L10.5 27.925L10.337 27.893L10.199 27.801L10.107 27.663L10.075 27.5L10.5 26.905ZM12.925 27.5L12.893 27.663L12.801 27.801L12.663 27.893L12.5 27.925L12.337 27.893L12.199 27.801L12.107 27.663L12.075 27.5L12.5 26.905ZM14.925 27.5L14.893 27.663L14.801 27.801L14.663 27.893L14.5 27.925L14.337 27.893L14.199 27.801L14.107 27.663L14.075 27.5L14.5 26.905ZM15.925 27.5L15.893 27.663L15.801 27.801L15.663 27.893L15.5 27.925L15.337 27.893L15.199 27.801L15.107 27.663L15.075 27.5L15.5 26.905ZM16.925 27.5L16.893 27.663L16.801 27.801L16.663 27.893L16.5 27.925L16.337 27.893L16.199 27.801L16.107 27.663L16.075 27.5L16.5 26.905ZM17.925 27.5L17.893 27.663L17.801 27.801L17.663 27.893L17.5 27.925L17.337 27.893L17.199 27.801L17.107 27.663L17.075 27.5L17.5 26.905ZM18.925 27.5L18.893 27.663L18.801 27.801L18.663 27.893L18.5 27.925L18.337 27.893L18.199 27.801L18.107 27.663L18.075 27.5L18.5 26.905ZM24.925 27.5L24.893 27.663L24.801 27.801L24.663 27.893L24.5 27.925L24.337 27.893L24.199 27.801L24.107 27.663L24.075 27.5L24.5 26.905ZM25.925 27.5L25.893 27.663L25.801 27.801L25.663 27.893L25.5 27.925L25.337 27.893L25.199 27.801L25.107 27.663L25.075 27.5L25.5 26.905ZM26.925 27.5L26.893 27.663L26.801 27.801L26.663 27.893L26.5 27.925L26.337 27.893L26.199 27.801L26.107 27.663L26.075 27.5L26.5 26.905ZM9.925 28.5L9.893 28.663L9.801 28.801L9.663 28.893L9.5 28.925L9.337 28.893L9.199 28.801L9.107 28.663L9.075 28.5L9.5 27.905ZM10.925 28.5L10.893 28.663L10.801 28.801L10.663 28.893L10.5 28.925L10.337 28.893L10.199 28.801L10.107 28.663L10.075 28.5L10.5 27.905ZM11.925 28.5L11.893 28.663L11.801 28.801L11.663 28.893L11.5 28.925L11.337 28.893L11.199 28.801L11.107 28.663L11.075 28.5L11.5 27.905ZM12.925 28.5L12.893 28.663L12.801 28.801L12.663 28.893L12.5 28.925L12.337 28.893L12.199 28.801L12.107 28.663L12.075 28.5L12.5 27.905ZM14.925 28.5L14.893 28.663L14.801 28.801L14.663 28.893L14.5 28.925L14.337 28.893L14.199 28.801L14.107 28.663L14.075 28.5L14.5 27.905ZM18.925 28.5L18.893 28.663L18.801 28.801L18.663 28.893L18.5 28.925L18.337 28.893L18.199 28.801L18.107 28.663L18.075 28.5L18.5 27.905ZM22.925 28.5L22.893 28.663L22.801 28.801L22.663 28.893L22.5 28.925L22.337 28.893L22.199 28.801L22.107 28.663L22.075 28.5L22.5 27.905ZM23.925 28.5L23.893 28.663L23.801 28.801L23.663 28.893L23.5 28.925L23.337 28.893L23.199 28.801L23.107 28.663L23.075 28.5L23.5 27.905ZM24.925 28.5L24.893 28.663L24.801 28.801L24.663 28.893L24.5 28.925L24.337 28.893L24.199 28.801L24.107 28.663L24.075 28.5L24.5 27.905ZM26.925 28.5L26.893 28.663L26.801 28.801L26.663 28.893L26.5 28.925L26.337 28.893L26.199 28.801L26.107 28.663L26.075 28.5L26.5 27.905ZM27.925 28.5L27.893 28.663L27.801 28.801L27.663 28.893L27.5 28.925L27.337 28.893L27.199 28.801L27.107 28.663L27.075 28.5L27.5 27.905Z" style="fill-rule: evenodd; fill: url(#g1-0c47ff2ef9a29dcc)" /></g></g></svg></g><svg><text x="50%" y="92%" style="dominant-baseline: middle; text-anchor: middle; font-weight: bold; font-size: 38.46px; fill: #ffffff; font-family: Georgia, serif">Text here</text></svg></svg>